<svg width="272" height="72" viewBox="0 0 272 72" fill="none" xmlns="http://www.w3.org/2000/svg">
  <defs>
    <radialGradient id="markAura" cx="0" cy="0" r="1" gradientUnits="userSpaceOnUse" gradientTransform="translate(31 34) rotate(90) scale(28 28)">
      <stop stop-color="#22D3EE" stop-opacity="0.26" />
      <stop offset="0.6" stop-color="#14B8A6" stop-opacity="0.14" />
      <stop offset="1" stop-color="#14B8A6" stop-opacity="0" />
    </radialGradient>
    <linearGradient id="strikeGradient" x1="12" y1="48" x2="53" y2="12" gradientUnits="userSpaceOnUse">
      <stop stop-color="#14B8A6" />
      <stop offset="0.5" stop-color="#42E8D2" />
      <stop offset="1" stop-color="#7DD3FC" />
    </linearGradient>
    <linearGradient id="sparkGradient" x1="43" y1="18" x2="58" y2="8" gradientUnits="userSpaceOnUse">
      <stop stop-color="#5EEAD4" />
      <stop offset="1" stop-color="#D9FFFB" />
    </linearGradient>
    <linearGradient id="iqGradient" x1="162" y1="19" x2="220" y2="55" gradientUnits="userSpaceOnUse">
      <stop stop-color="#99F6E4" />
      <stop offset="0.45" stop-color="#42E8D2" />
      <stop offset="1" stop-color="#38BDF8" />
    </linearGradient>
    <filter id="electricGlow" x="-80%" y="-80%" width="260%" height="260%">
      <feGaussianBlur stdDeviation="5" result="blur" />
    </filter>
  </defs>

  <circle cx="31" cy="35" r="24" fill="url(#markAura)" opacity="0.8" />

  <g opacity="0.22">
    <path d="M8 53H39" stroke="#0F766E" stroke-width="1.5" />
    <path d="M8 44H39" stroke="#0F766E" stroke-width="1.5" />
    <path d="M8 35H39" stroke="#0F766E" stroke-width="1.5" />
  </g>

  <g filter="url(#electricGlow)">
    <line x1="12" y1="32" x2="12" y2="47" stroke="#79F5E3" stroke-width="2.2" stroke-linecap="round" />
    <rect x="8.8" y="36" width="6.4" height="8.6" rx="1.2" fill="#0F766E" />

    <line x1="22" y1="24" x2="22" y2="39" stroke="#79F5E3" stroke-width="2.2" stroke-linecap="round" />
    <rect x="18.8" y="28" width="6.4" height="8.8" rx="1.2" fill="#14B8A6" />

    <line x1="32" y1="18" x2="32" y2="31" stroke="#A7FFF1" stroke-width="2.2" stroke-linecap="round" />
    <rect x="28.8" y="21.5" width="6.4" height="8.2" rx="1.2" fill="#22D3EE" />

    <path d="M11 44.5 L18 36 L26 38.5 L33 27.5 L39 29.5 L44.5 19" stroke="url(#strikeGradient)" stroke-width="4" fill="none" stroke-linecap="round" stroke-linejoin="round" />
    <path d="M42 15 L35.5 28.5 L42.5 29 L36 43 L52 24.5 L44.5 23.5 L49.5 15 Z" fill="url(#strikeGradient)" />
  </g>

  <path d="M11 44.5 L18 36 L26 38.5 L33 27.5 L39 29.5 L44.5 19" stroke="url(#strikeGradient)" stroke-width="3" fill="none" stroke-linecap="round" stroke-linejoin="round" />
  <path d="M42 15 L35.5 28.5 L42.5 29 L36 43 L52 24.5 L44.5 23.5 L49.5 15 Z" fill="url(#strikeGradient)" />

  <g stroke="url(#sparkGradient)" stroke-width="2" stroke-linecap="round">
    <path d="M49 8V12" />
    <path d="M53.5 10.5H57.5" />
    <path d="M45.5 11.5L43 9" />
    <path d="M53.5 15L56.2 17.5" />
    <path d="M18 17V20" opacity="0.8" />
  </g>

  <circle cx="49" cy="12" r="1.6" fill="#D9FFFB" />
  <circle cx="18" cy="16" r="1.2" fill="#79F5E3" opacity="0.9" />

  <text x="67" y="49" font-family="-apple-system, BlinkMacSystemFont, 'Avenir Next', 'SF Pro Display', 'Segoe UI', system-ui, sans-serif" font-size="42" letter-spacing="-2.2">
    <tspan fill="#F8FAFC" font-weight="700">Worth</tspan>
    <tspan fill="url(#iqGradient)" font-weight="800">IQ</tspan>
    <tspan fill="#7DD3FC" font-size="15" font-weight="700" baseline-shift="super">™</tspan>
  </text>
</svg>
