<svg width="512" height="512" viewBox="0 0 512 512" fill="none" xmlns="http://www.w3.org/2000/svg">
  <defs>
    <radialGradient id="worthiqMarkAura" cx="0" cy="0" r="1" gradientUnits="userSpaceOnUse" gradientTransform="translate(256 226) rotate(90) scale(206)">
      <stop stop-color="#39F7E8" stop-opacity="0.34" />
      <stop offset="0.52" stop-color="#1BE4D2" stop-opacity="0.16" />
      <stop offset="1" stop-color="#1BE4D2" stop-opacity="0" />
    </radialGradient>
    <linearGradient id="worthiqMarkRing" x1="98" y1="338" x2="422" y2="138" gradientUnits="userSpaceOnUse">
      <stop stop-color="#13D6C9" />
      <stop offset="0.5" stop-color="#71FFF4" />
      <stop offset="1" stop-color="#21E9D8" />
    </linearGradient>
    <filter id="worthiqMarkGlow" x="42" y="42" width="428" height="428" filterUnits="userSpaceOnUse">
      <feGaussianBlur stdDeviation="16" />
    </filter>
    <filter id="worthiqSparkGlow" x="0" y="0" width="512" height="512" filterUnits="userSpaceOnUse">
      <feGaussianBlur stdDeviation="6" />
    </filter>
  </defs>

  <rect width="512" height="512" fill="#040708" />
  <circle cx="256" cy="226" r="198" fill="url(#worthiqMarkAura)" />
  <circle cx="256" cy="226" r="160" fill="#051617" />

  <g opacity="0.34">
    <circle cx="256" cy="226" r="148" stroke="#0A2827" stroke-width="10" />
    <circle cx="256" cy="226" r="138" stroke="#103534" stroke-width="4" />
    <circle cx="256" cy="226" r="128" stroke="#123F3D" stroke-width="3" />
  </g>

  <circle cx="256" cy="226" r="164" stroke="url(#worthiqMarkRing)" stroke-width="18" opacity="0.48" filter="url(#worthiqMarkGlow)" />
  <circle cx="256" cy="226" r="164" stroke="url(#worthiqMarkRing)" stroke-width="11" />

  <path
    d="M131 341L194 278L230 304L275 239L315 265L415 108L386 118L306 206L271 182L225 247L192 225L131 341Z"
    fill="white"
  />

  <g opacity="0.9" filter="url(#worthiqSparkGlow)">
    <circle cx="102" cy="274" r="4" fill="#64FFF0" />
    <circle cx="134" cy="178" r="3.5" fill="#64FFF0" />
    <circle cx="410" cy="172" r="4.5" fill="#64FFF0" />
    <circle cx="428" cy="258" r="4" fill="#64FFF0" />
    <circle cx="372" cy="326" r="3.5" fill="#64FFF0" />
    <circle cx="150" cy="348" r="3.5" fill="#64FFF0" />
  </g>
</svg>
