<svg width="1024" height="900" viewBox="80 0 864 900" fill="none" xmlns="http://www.w3.org/2000/svg">
  <defs>
    <radialGradient id="worthiqLogoAuraOuter" cx="0" cy="0" r="1" gradientUnits="userSpaceOnUse" gradientTransform="translate(512 290) rotate(90) scale(332 332)">
      <stop offset="0" stop-color="#2DF7EA" stop-opacity="0.08" />
      <stop offset="0.55" stop-color="#1BE4D2" stop-opacity="0.16" />
      <stop offset="0.8" stop-color="#1BE4D2" stop-opacity="0.08" />
      <stop offset="1" stop-color="#1BE4D2" stop-opacity="0" />
    </radialGradient>
    <radialGradient id="worthiqLogoAuraInner" cx="0" cy="0" r="1" gradientUnits="userSpaceOnUse" gradientTransform="translate(512 290) rotate(90) scale(248 248)">
      <stop offset="0" stop-color="#021011" />
      <stop offset="0.78" stop-color="#051617" />
      <stop offset="1" stop-color="#083130" />
    </radialGradient>
    <linearGradient id="worthiqLogoRing" x1="256" y1="512" x2="792" y2="142" gradientUnits="userSpaceOnUse">
      <stop offset="0" stop-color="#12D9CC" />
      <stop offset="0.48" stop-color="#7CFFF6" />
      <stop offset="1" stop-color="#16E8D7" />
    </linearGradient>
    <linearGradient id="worthiqWordIQ" x1="654" y1="730" x2="864" y2="820" gradientUnits="userSpaceOnUse">
      <stop offset="0" stop-color="#79FFF7" />
      <stop offset="1" stop-color="#20E9D8" />
    </linearGradient>
    <filter id="worthiqLogoOuterGlow" x="118" y="0" width="788" height="760" filterUnits="userSpaceOnUse" color-interpolation-filters="sRGB">
      <feGaussianBlur stdDeviation="26" />
    </filter>
    <filter id="worthiqLogoSparkGlow" x="130" y="20" width="760" height="720" filterUnits="userSpaceOnUse" color-interpolation-filters="sRGB">
      <feGaussianBlur stdDeviation="8" />
    </filter>
    <filter id="worthiqLogoFlareGlow" x="640" y="420" width="210" height="200" filterUnits="userSpaceOnUse" color-interpolation-filters="sRGB">
      <feGaussianBlur stdDeviation="10" />
    </filter>
  </defs>

  <circle cx="512" cy="290" r="312" fill="url(#worthiqLogoAuraOuter)" />
  <circle cx="512" cy="290" r="248" fill="url(#worthiqLogoAuraInner)" />

  <g opacity="0.38">
    <circle cx="512" cy="290" r="232" stroke="#0A2827" stroke-width="18" />
    <circle cx="512" cy="290" r="218" stroke="#103534" stroke-width="8" />
    <circle cx="512" cy="290" r="204" stroke="#123F3D" stroke-width="5" />
    <circle cx="512" cy="290" r="192" stroke="#0F3331" stroke-width="3" />
  </g>

  <circle cx="512" cy="290" r="274" stroke="url(#worthiqLogoRing)" stroke-width="28" opacity="0.62" filter="url(#worthiqLogoOuterGlow)" />
  <circle cx="512" cy="290" r="274" stroke="url(#worthiqLogoRing)" stroke-width="12" />

  <g opacity="0.95" filter="url(#worthiqLogoSparkGlow)">
    <circle cx="232" cy="248" r="4" fill="#67FFF1" />
    <circle cx="252" cy="184" r="4.5" fill="#67FFF1" />
    <circle cx="274" cy="158" r="3.5" fill="#67FFF1" />
    <circle cx="770" cy="186" r="6" fill="#67FFF1" />
    <circle cx="792" cy="248" r="5" fill="#67FFF1" />
    <circle cx="802" cy="356" r="4" fill="#67FFF1" />
    <circle cx="742" cy="474" r="4.5" fill="#67FFF1" />
    <circle cx="296" cy="552" r="4" fill="#67FFF1" />
    <circle cx="228" cy="416" r="4" fill="#67FFF1" />
    <circle cx="214" cy="360" r="3.5" fill="#67FFF1" />
  </g>

  <g filter="url(#worthiqLogoFlareGlow)" opacity="0.9">
    <path d="M695 520L788 445" stroke="#5FFFF0" stroke-width="5" stroke-linecap="round" />
    <path d="M740 438L740 528" stroke="#8DFFF7" stroke-width="3" stroke-linecap="round" />
  </g>

  <path
    d="M256 586L376 468L440 515L520 403L592 450L782 155L727 175L567 323L495 279L422 387L359 343L256 586Z"
    fill="white"
  />

  <text x="200" y="792" font-family="-apple-system, BlinkMacSystemFont, 'Avenir Next', 'Segoe UI', system-ui, sans-serif" font-size="144" font-weight="900" letter-spacing="-8">
    <tspan fill="white">WORTH</tspan>
    <tspan fill="url(#worthiqWordIQ)">IQ</tspan>
  </text>
  <text x="812" y="724" font-family="-apple-system, BlinkMacSystemFont, 'Avenir Next', 'Segoe UI', system-ui, sans-serif" font-size="34" font-weight="800" fill="white">TM</text>
</svg>
